<svg id="Capa_1" enable-background="new 0 0 512.051 512.051" viewBox="0 0 512.051 512.051" xmlns="http://www.w3.org/2000/svg"><g><g><path d="m409.511 269.766-199.46-199.46v174.3c17.46 6.18 30 22.87 30 42.42 0 24.81-20.19 45-45 45s-45-20.19-45-45c0-19.55 12.54-36.24 30-42.42v-172.311l-169.83 207.56c-14.7 17.97-13.41 43.9 3.01 60.32l122.52 122.52c16.46 16.46 42.39 17.68 60.32 3.01l212.33-173.73c6.86-5.61 7.39-15.94 1.11-22.209zm-214.46 32.259c8.27 0 15-6.73 15-15s-6.73-15-15-15-15 6.73-15 15 6.73 15 15 15z"/></g><g><path d="m210.051 15.025v55.28l-3.89-3.89c-6.25-6.251-16.593-5.765-22.21 1.11l-3.9 4.77v-57.27c0-8.28 6.72-15 15-15s15 6.72 15 15z"/></g><path d="m482.051 308.025v54c0 8.28-6.72 15-15 15s-15-6.72-15-15c0-18.11-9.15-35.14-24.01-47.37 20.01-16.98 21.26-47.53 2.68-66.1l-34.59-34.59c47.4 8.79 85.92 46.511 85.92 94.06z"/><g><path d="m506.041 444.545-26-45.02c-2.68-4.64-7.63-7.5-12.99-7.5s-10.31 2.86-12.99 7.5l-26 45.02c-3.93 6.81-6.01 14.58-6.01 22.48 0 24.81 20.19 45 45 45s45-20.19 45-45c0-7.9-2.08-15.67-6.01-22.48z"/></g></g></svg>