<?xml version="1.0" encoding="UTF-8" standalone="no"?>
<svg
   xmlns="http://www.w3.org/2000/svg"
   version="1.1"
   viewBox="0 0 11.493235 11.209338"
>
  <g
     id="layer1">
    <path
       d="M 5.7460445,2.899e-6 C 2.573161,2.899e-6 -3.04e-7,2.5728114 -3.04e-7,5.7467533 c 0,2.538589 1.646414004,4.6926507 3.929944704,5.4528867 0.2875139,0.05256 0.3922889,-0.124884 0.3922889,-0.277284 0,-0.136525 -0.00494,-0.497769 -0.00776,-0.9771941 C 2.716036,10.292295 2.3787804,9.1746951 2.3787804,9.1746951 2.1173721,8.5107673 1.7406054,8.3340256 1.7406054,8.3340256 1.218847,7.9777201 1.7801165,7.9847756 1.7801165,7.9847756 2.3569082,8.0253451 2.6602971,8.5770896 2.6602971,8.5770896 3.1728832,9.4551535 4.0054388,9.2015063 4.3328166,9.0543979 4.3850277,8.6832757 4.5335472,8.4299812 4.6975889,8.2864006 3.4215916,8.1410562 2.0799776,7.6482256 2.0799776,5.4461866 2.0799776,4.8185949 2.3039915,4.3060087 2.671586,3.9041948 2.612319,3.7588504 2.4151165,3.1746503 2.72803,2.3833697 c 0,0 0.4822473,-0.1545167 1.5800918,0.5887862 0.4582584,-0.1273528 0.9500306,-0.1908528 1.4386279,-0.1933223 0.4882444,0.00247 0.9796639,0.06597 1.4386278,0.1933223 1.097139,-0.7433029 1.5786807,-0.5887862 1.5786807,-0.5887862 0.3136194,0.7912806 0.1164167,1.3754807 0.057503,1.5208251 0.3683,0.4018139 0.59055,0.9144001 0.59055,1.5419918 0,2.2076834 -1.3437306,2.6934585 -2.6236085,2.8356279 0.2060222,0.1774473 0.3898195,0.5281084 0.3898195,1.0643307 0,0.7679968 -0.00706,1.3878278 -0.00706,1.5762108 0,0.153811 0.1037167,0.33267 0.3951112,0.276578 C 9.8481402,10.437287 11.493143,8.2849895 11.493143,5.7467533 11.493148,2.5728114 8.9199864,2.899e-6 5.7460445,2.899e-6"
       style="fill:#1b1817;fill-opacity:1;fill-rule:evenodd;stroke:none;stroke-width:0.035;stroke-miterlimit:4;stroke-dasharray:none"
       id="path16" />
  </g>
</svg>
